<?xml version="1.0" standalone="no"?>
<!DOCTYPE svg PUBLIC "-//W3C//DTD SVG 20010904//EN"
 "http://www.w3.org/TR/2001/REC-SVG-20010904/DTD/svg10.dtd">
<svg version="1.0" xmlns="http://www.w3.org/2000/svg"
 width="319.000000pt" height="319.000000pt" viewBox="0 0 319.000000 319.000000"
 preserveAspectRatio="xMidYMid meet">

<g transform="translate(0.000000,319.000000) scale(0.100000,-0.100000)"
fill="#000000" stroke="none">
<path d="M1481 1702 l-2 -172 86 0 85 0 0 61 c0 55 -4 67 -36 110 -20 27 -33
49 -30 49 3 0 -5 10 -17 23 -12 12 -36 40 -53 62 l-32 39 -1 -172z m98 21 c59
-77 62 -84 59 -130 l-3 -48 -67 -3 -68 -3 0 52 c0 35 6 59 17 71 26 29 33 22
35 -34 1 -46 2 -43 7 22 3 41 5 77 3 80 -5 8 -21 -24 -16 -32 3 -5 1 -7 -5 -6
-5 2 -17 -6 -25 -17 -14 -18 -15 -14 -16 65 0 46 4 80 8 75 5 -6 37 -47 71
-92z"/>
<path d="M1619 1803 l-24 -28 26 23 25 22 75 -87 c70 -83 74 -90 80 -148 l6
-60 1 58 2 58 -81 94 c-45 52 -83 95 -84 95 -1 0 -12 -12 -26 -27z"/>
<path d="M1414 1615 c0 -49 1 -71 3 -48 2 23 2 64 0 90 -2 26 -3 8 -3 -42z"/>
<path d="M1720 1585 c0 -30 5 -55 10 -55 6 0 10 25 10 55 0 30 -4 55 -10 55
-5 0 -10 -25 -10 -55z"/>
<path d="M1333 1575 c0 -27 2 -38 4 -22 2 15 2 37 0 50 -2 12 -4 0 -4 -28z"/>
</g>
</svg>
